<svg width="24" height="24" viewBox="0 0 24 24" fill="none" xmlns="http://www.w3.org/2000/svg">
<path d="M16.3109 7.62668C16.961 10.9667 18.0994 13.0858 19.1482 14.3992C19.2474 14.5234 19.3455 14.64 19.4421 14.7496L5.94892 17.1288C6.0022 16.9928 6.05451 16.8496 6.10522 16.699C6.66449 15.0382 7.01564 12.5209 6.38229 8.929C6.15202 7.62306 6.44996 6.27914 7.21057 5.19288C7.97118 4.10661 9.13215 3.36699 10.4381 3.13672C11.6763 2.91839 12.9487 3.17492 14.0032 3.85044C14.0297 3.13091 14.2462 2.45991 14.604 1.88616C13.2296 1.15208 11.6411 0.893748 10.0908 1.16711C8.26248 1.48949 6.63712 2.52496 5.57227 4.04572C4.50741 5.56649 4.09029 7.44799 4.41267 9.2763C4.99486 12.578 4.65021 14.7529 4.2098 16.0607C3.98868 16.7174 3.7398 17.1665 3.55991 17.4388C3.46976 17.5752 3.39639 17.6681 3.35169 17.721C3.32932 17.7475 3.3141 17.764 3.30751 17.771L3.30507 17.7735C2.99479 18.0783 2.91678 18.5494 3.11366 18.9384C3.31266 19.3316 3.74557 19.5482 4.17954 19.4717L21.9061 16.346C22.3401 16.2695 22.6728 15.9179 22.7253 15.4804C22.7773 15.0475 22.5428 14.6314 22.147 14.4512L22.1438 14.4496C22.1353 14.4453 22.1153 14.435 22.0852 14.4178C22.0251 14.3833 21.9244 14.3212 21.793 14.2238C21.5309 14.0294 21.1434 13.6926 20.711 13.1511C19.9534 12.2024 19.0359 10.5977 18.4298 7.97723C18.2888 7.99228 18.1455 8 18.0005 8C17.3967 8 16.8241 7.86622 16.3109 7.62668Z" fill="white"/>
<path d="M16.2244 3.07952C17.0459 3.89055 17.6554 4.89385 17.9961 6C16.8936 5.99765 16.0005 5.10312 16.0005 4C16.0005 3.66808 16.0813 3.35505 16.2244 3.07952Z" fill="white"/>
<path d="M11.2157 20.399C11.638 20.0431 12.2689 20.097 12.6248 20.5193C12.7377 20.6533 12.8838 20.7553 13.0485 20.815C13.2131 20.8748 13.3906 20.8902 13.5632 20.8598C13.7357 20.8294 13.8972 20.7541 14.0315 20.6417C14.1658 20.5292 14.2682 20.3834 14.3285 20.2189C14.5185 19.7003 15.0928 19.4339 15.6114 19.6239C16.13 19.8138 16.3964 20.3882 16.2065 20.9068C16.0257 21.4003 15.7185 21.8377 15.3155 22.1751C14.9126 22.5125 14.428 22.7381 13.9105 22.8294C13.3929 22.9207 12.8604 22.8743 12.3663 22.6951C11.8723 22.5159 11.434 22.21 11.0953 21.808C10.7395 21.3857 10.7934 20.7548 11.2157 20.399Z" fill="white"/>
<path fill-rule="evenodd" clip-rule="evenodd" d="M16 4C16 2.89543 16.8954 2 18 2C19.1046 2 20 2.89543 20 4C20 5.10457 19.1046 6 18 6C16.8954 6 16 5.10457 16 4Z" fill="white"/>
</svg>
