<svg width="59" height="58" viewBox="0 0 59 58" fill="none" xmlns="http://www.w3.org/2000/svg">
<path fill-rule="evenodd" clip-rule="evenodd" d="M29.3141 55.1226C14.8068 55.1226 3.00557 43.3214 3.00557 28.8141C3.00557 14.3068 14.8068 2.50557 29.3141 2.50557C43.8201 2.50557 55.6226 14.3068 55.6226 28.8141C55.6226 43.3214 43.8201 55.1226 29.3141 55.1226M29.3141 0C13.4263 0 0.5 12.9263 0.5 28.8141C0.5 44.7019 13.4263 57.6282 29.3141 57.6282C45.2032 57.6282 58.1282 44.7019 58.1282 28.8141C58.1282 12.9263 45.2032 0 29.3141 0" fill="#FF6E7A"/>
<path fill-rule="evenodd" clip-rule="evenodd" d="M18.0388 23.8033C18.0388 23.113 18.6013 22.5505 19.2916 22.5505C19.9819 22.5505 20.5444 23.113 20.5444 23.8033C20.5444 24.4936 19.9819 25.0561 19.2916 25.0561C18.6013 25.0561 18.0388 24.4936 18.0388 23.8033M23.0499 23.8033C23.0499 21.7312 21.3637 20.0449 19.2916 20.0449C17.2195 20.0449 15.5332 21.7312 15.5332 23.8033C15.5332 25.8754 17.2195 27.5616 19.2916 27.5616C21.3637 27.5616 23.0499 25.8754 23.0499 23.8033" fill="#FF6E7A"/>
<path fill-rule="evenodd" clip-rule="evenodd" d="M39.3365 25.0561C38.6449 25.0561 38.0837 24.4936 38.0837 23.8033C38.0837 23.113 38.6449 22.5505 39.3365 22.5505C40.028 22.5505 40.5893 23.113 40.5893 23.8033C40.5893 24.4936 40.028 25.0561 39.3365 25.0561M39.3365 20.0449C37.2644 20.0449 35.5781 21.7312 35.5781 23.8033C35.5781 25.8754 37.2644 27.5616 39.3365 27.5616C41.4086 27.5616 43.0948 25.8754 43.0948 23.8033C43.0948 21.7312 41.4086 20.0449 39.3365 20.0449" fill="#FF6E7A"/>
<path fill-rule="evenodd" clip-rule="evenodd" d="M29.3141 35.0781C24.6437 35.0781 20.1938 37.0563 17.1057 40.5065C16.6446 41.0226 16.6885 41.8144 17.2034 42.2754C17.7195 42.7377 18.5113 42.6926 18.9723 42.1777C21.5856 39.2574 25.3553 37.5837 29.3141 37.5837C33.2729 37.5837 37.0425 39.2574 39.6558 42.1777C39.9026 42.4545 40.2459 42.5948 40.5891 42.5948C40.8861 42.5948 41.1867 42.4896 41.4248 42.2754C41.9397 41.8144 41.9835 41.0226 41.5225 40.5065C38.4344 37.0575 33.9857 35.0781 29.3141 35.0781" fill="#FF6E7A"/>
</svg>
