<svg width="44" height="44" viewBox="0 0 44 44" fill="none" xmlns="http://www.w3.org/2000/svg">
<rect width="44" height="44" rx="22" fill="#1FCED7"/>
<path d="M22 12C16.48 12 12 16.48 12 22C12 27.52 16.48 32 22 32C27.52 32 32 27.52 32 22C32 16.48 27.52 12 22 12ZM23.41 28.09V28.67C23.41 29.4 22.81 30 22.08 30H22.07C21.34 30 20.74 29.4 20.74 28.67V28.07C19.41 27.79 18.23 27.06 17.73 25.83C17.5 25.28 17.93 24.67 18.53 24.67H18.77C19.14 24.67 19.44 24.92 19.58 25.27C19.87 26.02 20.63 26.54 22.09 26.54C24.05 26.54 24.49 25.56 24.49 24.95C24.49 24.12 24.05 23.34 21.82 22.81C19.34 22.21 17.64 21.19 17.64 19.14C17.64 17.42 19.03 16.3 20.75 15.93V15.33C20.75 14.6 21.35 14 22.08 14H22.09C22.82 14 23.42 14.6 23.42 15.33V15.95C24.8 16.29 25.67 17.15 26.05 18.21C26.25 18.76 25.83 19.34 25.24 19.34H24.98C24.61 19.34 24.31 19.08 24.21 18.72C23.98 17.96 23.35 17.47 22.09 17.47C20.59 17.47 19.69 18.15 19.69 19.11C19.69 19.95 20.34 20.5 22.36 21.02C24.38 21.54 26.54 22.41 26.54 24.93C26.52 26.76 25.15 27.76 23.41 28.09V28.09Z" fill="white"/>
</svg>
