<svg width="44" height="44" viewBox="0 0 44 44" fill="none" xmlns="http://www.w3.org/2000/svg">
<rect width="44" height="44" rx="12" fill="#3C6FE4"/>
<path d="M30 19H21C19.8954 19 19 19.8954 19 21V30C19 31.1046 19.8954 32 21 32H30C31.1046 32 32 31.1046 32 30V21C32 19.8954 31.1046 19 30 19Z" stroke="white" stroke-width="2" stroke-linecap="round" stroke-linejoin="round"/>
<path d="M15 25H14C13.4696 25 12.9609 24.7893 12.5858 24.4142C12.2107 24.0391 12 23.5304 12 23V14C12 13.4696 12.2107 12.9609 12.5858 12.5858C12.9609 12.2107 13.4696 12 14 12H23C23.5304 12 24.0391 12.2107 24.4142 12.5858C24.7893 12.9609 25 13.4696 25 14V15" stroke="white" stroke-width="2" stroke-linecap="round" stroke-linejoin="round"/>
</svg>
