<svg width="72" height="72" viewBox="0 0 72 72" fill="none" xmlns="http://www.w3.org/2000/svg">
<path fill-rule="evenodd" clip-rule="evenodd" d="M36.0001 68.8693C17.8748 68.8693 3.13049 54.125 3.13049 35.9998C3.13049 17.8745 17.8748 3.13018 36.0001 3.13018C54.1237 3.13018 68.8696 17.8745 68.8696 35.9998C68.8696 54.125 54.1237 68.8693 36.0001 68.8693ZM36 0C16.1499 0 0 16.1499 0 36C0 55.8501 16.1499 72 36 72C55.8517 72 72 55.8501 72 36C72 16.1499 55.8517 0 36 0Z" fill="#FF6E7A"/>
<path fill-rule="evenodd" clip-rule="evenodd" d="M21.9136 29.7386C21.9136 28.8761 22.6164 28.1733 23.4788 28.1733C24.3412 28.1733 25.044 28.8761 25.044 29.7386C25.044 30.601 24.3412 31.3038 23.4788 31.3038C22.6164 31.3038 21.9136 30.601 21.9136 29.7386ZM28.1745 29.739C28.1745 27.1501 26.0677 25.0433 23.4789 25.0433C20.89 25.0433 18.7832 27.1501 18.7832 29.739C18.7832 32.3279 20.89 34.4346 23.4789 34.4346C26.0677 34.4346 28.1745 32.3279 28.1745 29.739Z" fill="#FF6E7A"/>
<path fill-rule="evenodd" clip-rule="evenodd" d="M48.5219 31.3038C47.6579 31.3038 46.9567 30.601 46.9567 29.7386C46.9567 28.8761 47.6579 28.1733 48.5219 28.1733C49.3859 28.1733 50.0871 28.8761 50.0871 29.7386C50.0871 30.601 49.3859 31.3038 48.5219 31.3038ZM48.5218 25.0433C45.933 25.0433 43.8262 27.1501 43.8262 29.739C43.8262 32.3279 45.933 34.4346 48.5218 34.4346C51.1107 34.4346 53.2175 32.3279 53.2175 29.739C53.2175 27.1501 51.1107 25.0433 48.5218 25.0433Z" fill="#FF6E7A"/>
<path fill-rule="evenodd" clip-rule="evenodd" d="M35.9993 43.8262C30.1642 43.8262 24.6045 46.2976 20.7463 50.6083C20.1703 51.2531 20.225 52.2423 20.8683 52.8183C21.5132 53.3959 22.5024 53.3396 23.0784 52.6963C26.3435 49.0477 31.0532 46.9566 35.9993 46.9566C40.9454 46.9566 45.6551 49.0477 48.9202 52.6963C49.2285 53.0422 49.6574 53.2175 50.0863 53.2175C50.4572 53.2175 50.8329 53.086 51.1303 52.8183C51.7736 52.2423 51.8283 51.2531 51.2523 50.6083C47.3941 46.2992 41.836 43.8262 35.9993 43.8262Z" fill="#FF6E7A"/>
</svg>
