<svg width="57" height="56" viewBox="0 0 57 56" fill="none" xmlns="http://www.w3.org/2000/svg">
<path fill-rule="evenodd" clip-rule="evenodd" d="M40.2686 34.3974C39.767 33.9482 38.9964 33.992 38.5497 34.4924C36.0102 37.33 32.3483 38.9566 28.5001 38.9566C24.6531 38.9566 20.99 37.33 18.4505 34.4924C18.0013 33.992 17.2331 33.9482 16.7316 34.3974C16.23 34.8454 16.1886 35.6148 16.6366 36.1164C19.6375 39.4691 23.9617 41.3913 28.5001 41.3913C33.0397 41.3913 37.3639 39.4679 40.3636 36.1164C40.8116 35.6148 40.769 34.8454 40.2686 34.3974" fill="#1FCED7"/>
<path fill-rule="evenodd" clip-rule="evenodd" d="M28.4999 53.5648C14.4026 53.5648 2.93473 42.097 2.93473 27.9996C2.93473 13.9022 14.4026 2.43435 28.4999 2.43435C42.5973 2.43435 54.0652 13.9022 54.0652 27.9996C54.0652 42.097 42.5973 53.5648 28.4999 53.5648M28.5 0C13.061 0 0.5 12.561 0.5 28C0.5 43.439 13.061 56 28.5 56C43.939 56 56.5 43.439 56.5 28C56.5 12.561 43.939 0 28.5 0" fill="#1FCED7"/>
<path fill-rule="evenodd" clip-rule="evenodd" d="M38.2388 19.4775C34.8825 19.4775 32.1519 22.2081 32.1519 25.5645C32.1519 26.2365 32.6972 26.7819 33.3692 26.7819C34.0412 26.7819 34.5866 26.2365 34.5866 25.5645C34.5866 23.5509 36.2252 21.9123 38.2388 21.9123C40.2524 21.9123 41.891 23.5509 41.891 25.5645C41.891 26.2365 42.4364 26.7819 43.1084 26.7819C43.7804 26.7819 44.3258 26.2365 44.3258 25.5645C44.3258 22.2081 41.5952 19.4775 38.2388 19.4775" fill="#1FCED7"/>
<path fill-rule="evenodd" clip-rule="evenodd" d="M22.413 25.5645C22.413 26.2365 22.9583 26.7819 23.6303 26.7819C24.3023 26.7819 24.8477 26.2365 24.8477 25.5645C24.8477 22.2081 22.1171 19.4775 18.7608 19.4775C15.4044 19.4775 12.6738 22.2081 12.6738 25.5645C12.6738 26.2365 13.2192 26.7819 13.8912 26.7819C14.5632 26.7819 15.1086 26.2365 15.1086 25.5645C15.1086 23.5509 16.7472 21.9123 18.7608 21.9123C20.7743 21.9123 22.413 23.5509 22.413 25.5645" fill="#1FCED7"/>
</svg>
