<svg width="59" height="58" viewBox="0 0 59 58" fill="none" xmlns="http://www.w3.org/2000/svg">
<path fill-rule="evenodd" clip-rule="evenodd" d="M41.6886 35.6263C41.1692 35.161 40.371 35.2064 39.9083 35.7246C37.2781 38.6636 33.4854 40.3482 29.4998 40.3482C25.5155 40.3482 21.7215 38.6636 19.0913 35.7246C18.6261 35.2064 17.8305 35.161 17.311 35.6263C16.7915 36.0903 16.7486 36.8872 17.2126 37.4066C20.3207 40.8791 24.7993 42.87 29.4998 42.87C34.2016 42.87 38.6802 40.8778 41.787 37.4066C42.251 36.8872 42.2069 36.0903 41.6886 35.6263" fill="white"/>
<path fill-rule="evenodd" clip-rule="evenodd" d="M29.5 55.4783C14.8991 55.4783 3.02174 43.6009 3.02174 29C3.02174 14.3991 14.8991 2.52174 29.5 2.52174C44.1009 2.52174 55.9783 14.3991 55.9783 29C55.9783 43.6009 44.1009 55.4783 29.5 55.4783M29.5 0C13.5097 0 0.5 13.0097 0.5 29C0.5 44.9903 13.5097 58 29.5 58C45.4903 58 58.5 44.9903 58.5 29C58.5 13.0097 45.4903 0 29.5 0" fill="white"/>
<path fill-rule="evenodd" clip-rule="evenodd" d="M39.5871 20.1738C36.1108 20.1738 33.2827 23.002 33.2827 26.4782C33.2827 27.1742 33.8476 27.739 34.5436 27.739C35.2396 27.739 35.8045 27.1742 35.8045 26.4782C35.8045 24.3927 37.5016 22.6956 39.5871 22.6956C41.6725 22.6956 43.3697 24.3927 43.3697 26.4782C43.3697 27.1742 43.9345 27.739 44.6305 27.739C45.3265 27.739 45.8914 27.1742 45.8914 26.4782C45.8914 23.002 43.0633 20.1738 39.5871 20.1738" fill="white"/>
<path fill-rule="evenodd" clip-rule="evenodd" d="M23.1958 26.4782C23.1958 27.1742 23.7607 27.739 24.4567 27.739C25.1527 27.739 25.7176 27.1742 25.7176 26.4782C25.7176 23.002 22.8895 20.1738 19.4132 20.1738C15.937 20.1738 13.1089 23.002 13.1089 26.4782C13.1089 27.1742 13.6738 27.739 14.3698 27.739C15.0658 27.739 15.6306 27.1742 15.6306 26.4782C15.6306 24.3927 17.3278 22.6956 19.4132 22.6956C21.4987 22.6956 23.1958 24.3927 23.1958 26.4782" fill="white"/>
</svg>
