<svg width="84" height="102" viewBox="0 0 84 102" fill="none" xmlns="http://www.w3.org/2000/svg">
<path d="M83.3898 21.4308C83.2723 18.9029 82.7058 15.929 80.9021 14.2279C79.0984 12.5268 75.1208 11.3387 70.2168 11.3387C67.8748 11.3387 65.4154 11.3105 63.1567 11.4086C62.2387 11.4016 61.3217 11.4692 60.4147 11.6108C59.0527 11.7595 57.8393 12.0049 56.8758 12.3781C56.4189 12.5535 55.9764 12.7643 55.5524 13.0086C55.2907 13.1171 55.0319 13.2302 54.7732 13.3491C50.9071 15.1067 47.2848 17.3639 43.7697 19.7237C36.7705 24.4344 30.1491 29.7786 22.6176 33.6506C21.428 34.2618 20.2191 34.7971 18.9939 35.3026C17.9563 35.6664 16.8911 35.9463 15.8088 36.1398C14.5701 36.3584 13.1323 36.2305 11.9799 36.7554C11.6289 36.9145 11.4133 37.3353 11.6646 37.6892C12.1226 38.3331 12.8319 38.3137 13.559 38.3316C14.1032 38.345 14.6475 38.3479 15.1947 38.3465C15.1947 38.3836 15.1947 38.4208 15.1947 38.458C14.3962 38.5814 13.6006 38.7167 12.8066 38.8342C12.1746 38.9279 9.98138 38.8342 10.2936 40.0535C10.5509 41.0691 12.4869 40.9382 13.2542 40.9308C13.9549 40.915 14.6543 40.8619 15.3493 40.7717C15.3672 40.849 15.3865 40.9204 15.4058 41.0037C14.1657 41.3011 12.9137 41.5345 11.6497 41.7085C11.0267 41.7947 10.2104 41.7769 9.99476 42.5129C9.81632 43.1285 10.2475 43.6638 10.7873 43.8809C11.6408 44.2229 12.7917 44.1873 13.6973 44.1709C14.737 44.1446 15.7726 44.0307 16.7932 43.8304C17.8504 43.6311 19.1723 43.4676 20.1745 42.9025C23.9903 41.9978 27.7195 40.7603 31.3193 39.2044C31.2951 39.3243 31.2866 39.4467 31.294 39.5687C31.3089 39.8765 31.5498 40.2349 31.9037 40.2022C33.1111 40.0947 34.3077 39.8883 35.4813 39.5851C35.4813 39.6862 35.4813 39.7888 35.4813 39.8899C34.778 40.1576 34.0687 40.4163 33.3862 40.7241C32.8256 40.9769 32.2933 41.3442 32.2635 42.0103C32.2622 42.2891 32.4433 42.536 32.7096 42.6185C33.5557 42.8758 34.7914 42.5635 35.6464 42.394C35.8902 42.3449 40.3556 41.1791 43.0068 40.3256C44.0611 39.9851 45.554 39.5226 47.4038 38.9011C46.9865 40.6161 46.5404 42.3226 46.0655 44.0207C44.0384 51.1975 41.47 58.2103 38.3824 64.9988C34.9282 72.5942 31.5424 81.9725 27.4398 89.2363C27.1677 89.7196 27.0086 93.1604 27.8859 93.1262C27.9136 93.1245 27.941 93.1201 27.9677 93.1128C28.0533 93.1503 28.1465 93.1671 28.2398 93.1619C32.8187 92.9835 37.399 92.9418 41.9808 93.037C42.4894 93.0474 42.705 92.5091 42.5176 92.1017C42.0517 91.0923 41.4574 90.1472 40.7496 89.2898C42.5518 85.9709 49.9748 68.9824 51.8543 65.2516C55.7412 57.5461 57.8765 49.1225 59.6698 40.7301C60.0207 39.0855 60.3676 37.4394 60.7106 35.7919C62.1322 35.4231 63.5527 35.0508 64.9723 34.6751C64.1507 40.2977 62.9782 45.8634 61.4616 51.3396C59.1776 59.5803 56.0074 67.5475 52.7331 75.4388C50.9413 79.7584 47.9986 86.5048 46.8953 89.2438C45.896 91.724 46.1518 92.6147 47.7235 92.7604C47.8131 92.8088 47.9119 92.8377 48.0135 92.8452C52.7448 93.1948 57.4947 93.2152 62.2288 92.9061C62.7389 92.8719 63.0823 92.2355 62.6675 91.8445L61.2831 90.5389C60.9483 90.2098 60.6321 89.8623 60.3359 89.498C60.0177 89.0519 72.9855 55.7231 76.5438 38.7227C76.9899 36.5918 77.3899 33.9198 77.7468 31.7741C81.4196 29.1451 83.601 25.9779 83.3898 21.4308Z" fill="url(#paint0_linear_1_9004)"/>
<path d="M66.5753 5.60161C67.1165 5.94212 67.7812 5.97186 68.4414 5.92131C68.427 6.38145 68.5001 6.84015 68.657 7.27296C68.895 7.82611 69.5329 8.20379 70.0518 8.46253C71.2667 9.05731 72.5306 8.54134 73.3871 7.58076C73.8464 7.03743 74.2081 6.41862 74.4562 5.75179L75.3157 5.84993C75.503 5.87075 75.6606 5.76815 75.6487 5.61499C75.5594 4.58043 75.2928 3.56894 74.8607 2.62471C74.712 1.82621 74.3149 1.13774 73.567 0.703549C73.0477 0.376535 72.4075 0.304788 71.8287 0.508756C71.1416 0.630575 70.5047 0.949299 69.9953 1.42621C69.6182 1.77296 69.3069 2.18503 69.0764 2.64255C68.7435 2.63159 68.4102 2.64202 68.0786 2.67378C67.2444 2.7511 66.1842 2.82247 65.8378 3.73547C65.5746 4.43434 65.9656 5.22094 66.5753 5.60161Z" fill="#EE2128"/>
<path d="M70.6674 87.9018C69.8927 84.5874 67.1775 82.2067 64.1768 81.5539C63.8148 81.4754 63.449 81.4154 63.0809 81.374C61.362 86.1962 60.2334 89.365 60.33 89.5018C60.6262 89.866 60.9424 90.2135 61.2772 90.5426L62.6616 91.8482C63.0765 92.2393 62.733 92.8757 62.2229 92.9099C58.6819 93.1408 55.1311 93.1875 51.5852 93.0497C51.5956 93.3337 51.612 93.6177 51.6358 93.8987C51.8097 96.0028 52.574 97.7946 54.3584 99.0228C56.1427 100.251 56.7836 100.424 58.9159 100.428C60.0862 100.428 62.84 100.516 63.9909 100.315C65.1499 100.08 66.2408 99.5857 67.182 98.8696C68.7076 97.7395 69.7306 95.7217 70.3224 93.9701C70.9966 92.0182 71.116 89.9175 70.6674 87.9018Z" fill="url(#paint1_linear_1_9004)"/>
<path d="M30.5996 81.3757C27.5751 80.9891 24.393 81.5913 22.9001 82.2233C20.8436 83.0946 19.6198 84.5474 18.976 86.6738C18.269 89.0468 18.0088 91.5305 18.2087 93.9985C18.3827 96.1204 19.141 97.9271 20.9254 99.1672C22.7098 100.407 24.9536 100.72 27.0829 100.583C28.2502 100.507 29.4085 100.491 30.558 100.285C31.6762 100.088 32.8167 99.7159 33.749 99.02C35.2761 97.881 36.2991 95.8468 36.8894 94.0803C37.5655 92.1104 37.6853 89.9922 37.2359 87.9585C36.4657 84.6188 33.6241 81.7698 30.5996 81.3757Z" fill="url(#paint2_linear_1_9004)"/>
<path d="M37.282 93.3077C46.2261 93.1307 57.4155 92.9538 64.0057 92.7783" stroke="#131313" stroke-width="4" stroke-linecap="round" stroke-linejoin="round"/>
<path fill-rule="evenodd" clip-rule="evenodd" d="M24.9239 91.5946C25.196 92.1894 25.5514 92.8526 26.1833 93.0459C26.4032 93.1027 26.63 93.1277 26.8569 93.1202C27.1756 93.1487 27.4965 93.104 27.7952 92.9894C28.0042 92.8818 28.1823 92.7226 28.3127 92.5269C29.071 91.4474 28.4985 89.7315 27.2316 89.3077C26.0331 88.9077 24.3677 90.3664 24.9239 91.5946Z" stroke="#131313" stroke-width="6" stroke-linecap="round" stroke-linejoin="round"/>
<path d="M39.3012 39.837C38.47 39.8028 37.3563 38.8838 37.8485 38.2325C38.3407 37.5813 40.4551 37.8846 41.6982 38.2712" stroke="white" stroke-linecap="round" stroke-linejoin="round"/>
<path d="M16.5463 100.768H71.8732" stroke="white" stroke-linecap="round" stroke-linejoin="round"/>
<path d="M31.4591 39.072C34.3379 37.4467 40.8775 33.3382 42.5489 32.2944C45.8574 30.232 49.9837 26.7733 53.6387 24.125" stroke="white" stroke-linecap="round" stroke-linejoin="round"/>
<path d="M49.6566 27.1279C48.9919 30.8022 47.7518 35.4371 46.8909 39.0712" stroke="white" stroke-linecap="round" stroke-linejoin="round"/>
<path d="M64.9856 34.3802C65.2548 32.6656 65.4093 30.9349 65.4481 29.1996C64.3977 29.1307 63.3444 29.1193 62.2927 29.1654C61.9195 31.5104 61.4675 33.146 60.7983 35.3319" stroke="white" stroke-linecap="round" stroke-linejoin="round"/>
<path d="M79.2709 21.0498C79.6292 22.3479 78.7133 27.7709 78.0813 31.1612" stroke="white" stroke-linecap="round" stroke-linejoin="round"/>
<path d="M35.7132 58.8916C31.4501 59.0403 27.7803 59.0477 23.5201 59.2009" stroke="white" stroke-linecap="round" stroke-linejoin="round"/>
<path d="M15.1055 54.6949C20.2466 53.9512 25.4503 53.736 30.6353 54.0525" stroke="white" stroke-linecap="round" stroke-linejoin="round"/>
<path d="M19.3016 17.2919C24.9759 16.8666 30.662 16.708 36.3601 16.816" stroke="white" stroke-linecap="round" stroke-linejoin="round"/>
<path d="M33.0531 14.1709C36.3949 14.3256 39.7423 14.3122 43.0827 14.1308" stroke="white" stroke-linecap="round" stroke-linejoin="round"/>
<path d="M1.08484 81.3673C1.08484 81.3673 7.77618 81.6409 13.3211 81.1621" stroke="white" stroke-linecap="round" stroke-linejoin="round"/>
<path d="M9.95312 77.5396C9.95312 77.5396 16.0973 77.5158 21.6689 77.5396" stroke="white" stroke-linecap="round" stroke-linejoin="round"/>
<defs>
<linearGradient id="paint0_linear_1_9004" x1="14.6943" y1="20.085" x2="10.6589" y2="91.3063" gradientUnits="userSpaceOnUse">
<stop stop-color="#ED1D24"/>
<stop offset="1" stop-color="#FF898D"/>
</linearGradient>
<linearGradient id="paint1_linear_1_9004" x1="51.5852" y1="81.374" x2="74.1047" y2="104.107" gradientUnits="userSpaceOnUse">
<stop stop-color="#C9C9C9"/>
<stop offset="1" stop-color="#131313"/>
</linearGradient>
<linearGradient id="paint2_linear_1_9004" x1="18.1434" y1="81.2539" x2="41.0009" y2="104" gradientUnits="userSpaceOnUse">
<stop stop-color="#C9C9C9"/>
<stop offset="1" stop-color="#131313"/>
</linearGradient>
</defs>
</svg>
