<svg width="20" height="20" viewBox="0 0 20 20" fill="none" xmlns="http://www.w3.org/2000/svg">
<path d="M5.48135 7.11941H9.28867V12.8807H5.47851C4.86574 11.0104 4.86574 8.98974 5.47851 7.11941H5.48135ZM9.28867 18.5758V14.3211H6.04981C6.85533 15.9329 7.9542 17.3764 9.28867 18.5758ZM9.28867 1.43011C7.95785 2.62962 6.86074 4.07077 6.05395 5.67908H9.28867V1.43011ZM15.5253 5.67908H18.9912C18.2792 4.15291 17.1987 2.83315 15.8497 1.8413C14.5006 0.849615 12.9265 0.218052 11.2729 0.00488281C13.1077 1.53509 14.564 3.47805 15.5253 5.67896L15.5253 5.67908ZM10.7114 1.42435V5.67908H13.9503C13.1444 4.06739 12.0456 2.62385 10.7114 1.42435ZM19.5411 7.11941H16.0055C16.5347 9.00245 16.5347 10.9977 16.0055 12.8807H19.5417C20.0991 11.0017 20.0991 8.99842 19.5417 7.11941H19.5411ZM0.45818 7.11941C-0.0986901 8.99842 -0.0986901 11.0017 0.45818 12.8807H3.99444C3.46517 10.9977 3.46517 9.00245 3.99444 7.11941H0.45818ZM13.946 14.3211H10.7113V18.57C12.0421 17.3705 13.1392 15.9294 13.946 14.3211ZM15.5253 14.3211H15.5252C14.5637 16.522 13.1074 18.4651 11.2727 19.9951C12.9266 19.782 14.5006 19.1504 15.8496 18.1587C17.1987 17.1669 18.2791 15.8471 18.9911 14.3209L15.5253 14.3211ZM4.47452 14.3211H1.00859C1.72062 15.8472 2.80103 17.167 4.15009 18.1588C5.4992 19.1505 7.07326 19.7821 8.72692 19.9953C6.89208 18.465 5.43582 16.5221 4.47448 14.3212L4.47452 14.3211ZM14.9794 10.0001C14.9754 9.02159 14.8206 8.04966 14.5205 7.11941H10.7111V12.8807H14.5184C14.8198 11.9508 14.9753 10.9787 14.9794 10.0001ZM4.47452 5.67908C5.43599 3.47809 6.89229 1.53505 8.72696 0.0050062C7.07314 0.218163 5.49907 0.849739 4.15013 1.84143C2.80103 2.83328 1.72062 4.15303 1.00863 5.6792L4.47452 5.67908Z" fill="white"/>
</svg>
