<svg width="20" height="22" viewBox="0 0 20 22" fill="none" xmlns="http://www.w3.org/2000/svg">
<path d="M13.3104 6.6265C13.9605 9.96654 15.0989 12.0856 16.1477 13.399C16.2469 13.5232 16.345 13.6399 16.4416 13.7494L2.94843 16.1286C3.00171 15.9927 3.05402 15.8494 3.10474 15.6988C3.664 14.038 4.01516 11.5207 3.3818 7.92882C3.15153 6.62288 3.44947 5.27896 4.21008 4.19269C4.97069 3.10643 6.13166 2.36681 7.4376 2.13654C8.67584 1.9182 9.94822 2.17473 11.0027 2.85026C11.0292 2.13073 11.2457 1.45973 11.6035 0.885982C10.2291 0.151899 8.64059 -0.106435 7.0903 0.166922C5.26199 0.489303 3.63663 1.52477 2.57178 3.04554C1.50692 4.56631 1.08981 6.4478 1.41219 8.27611C1.99437 11.5778 1.64973 13.7527 1.20932 15.0606C0.98819 15.7172 0.739308 16.1663 0.559426 16.4386C0.469275 16.575 0.395904 16.6679 0.351197 16.7208C0.328832 16.7473 0.313613 16.7638 0.307026 16.7708L0.304578 16.7733C-0.00569934 17.0781 -0.0837101 17.5493 0.113173 17.9383C0.312169 18.3314 0.74508 18.548 1.17905 18.4715L18.9056 15.3458C19.3396 15.2693 19.6723 14.9177 19.7248 14.4802C19.7768 14.0473 19.5423 13.6313 19.1465 13.451L19.1434 13.4494C19.1348 13.4451 19.1148 13.4348 19.0848 13.4176C19.0246 13.3832 18.9239 13.321 18.7926 13.2236C18.5304 13.0293 18.1429 12.6924 17.7106 12.1509C16.9529 11.2022 16.0354 9.59754 15.4293 6.97705C15.2883 6.9921 15.145 6.99982 15 6.99982C14.3962 6.99982 13.8237 6.86604 13.3104 6.6265Z" fill="#ED1D24"/>
<path d="M13.2239 2.07934C14.0454 2.89037 14.6549 3.89367 14.9957 4.99981C13.8931 4.99747 13 4.10294 13 2.99982C13 2.6679 13.0809 2.35487 13.2239 2.07934Z" fill="#ED1D24"/>
<path d="M8.21521 19.3988C8.63756 19.0429 9.26843 19.0968 9.62429 19.5191C9.73718 19.6531 9.88328 19.7551 10.048 19.8148C10.2126 19.8746 10.3901 19.89 10.5627 19.8596C10.7352 19.8292 10.8967 19.754 11.031 19.6415C11.1653 19.529 11.2678 19.3832 11.328 19.2187C11.518 18.7001 12.0924 18.4337 12.6109 18.6237C13.1295 18.8136 13.3959 19.388 13.206 19.9066C13.0252 20.4001 12.718 20.8375 12.315 21.1749C11.9121 21.5123 11.4275 21.7379 10.91 21.8292C10.3924 21.9205 9.8599 21.8742 9.36585 21.6949C8.87179 21.5157 8.43349 21.2098 8.09484 20.8079C7.73897 20.3855 7.79287 19.7546 8.21521 19.3988Z" fill="#ED1D24"/>
</svg>
